<svg width="123" height="159" viewBox="0 0 123 159" fill="none" xmlns="http://www.w3.org/2000/svg">
<path d="M114.822 82.9809C114.822 87.3189 86.3352 140.519 86.3352 140.519C86.3352 140.519 100.359 85.6229 100.359 82.9809C100.359 78.6749 75.5222 42.1107 72.5291 38.4452C71.5255 37.2162 72.5291 34.1987 72.5291 34.1987C72.5291 34.1987 114.822 77.6989 114.822 82.9809Z" fill="#160247"/>
<path d="M85.9761 90.0039C85.9761 90.0039 63.7788 130.338 61.9429 130.826C59.7076 131.421 34.9185 88.2649 34.9185 88.2649L61.9429 46.892L65.4454 17.2246V46.892C65.4454 48.937 50.508 84.4729 49.6781 88.2649C49.6781 91.6449 60.1205 110.898 61.9429 110.413C63.0607 110.115 85.9761 90.0039 85.9761 90.0039Z" fill="#160247"/>
<path d="M11.9849 82.985C11.9848 87.324 40.4716 140.524 40.4716 140.524C40.4716 140.524 26.4481 85.627 26.4481 82.985C26.4481 78.679 51.2848 42.115 54.278 38.4495C55.2815 37.2205 54.278 34.2029 54.278 34.2029C54.278 34.2029 11.9849 77.703 11.9849 82.985Z" fill="#160247"/>
<path d="M96.3279 100.424L86.3098 140.409C86.3098 140.409 78.9898 135.002 76.8646 129.762C75.7611 127.04 96.3279 100.424 96.3279 100.424Z" fill="url(#paint0_linear_4959_804)"/>
<path d="M30.4785 100.427L40.4961 140.412C40.4961 140.412 47.8166 135.006 49.9414 129.765C51.0449 127.043 30.4785 100.427 30.4785 100.427Z" fill="url(#paint1_linear_4959_804)"/>
<path d="M67.1159 9.01562L62.7588 46.6474C62.7588 46.6474 55.769 17.492 55.769 15.4967C55.769 13.9651 67.1159 9.01562 67.1159 9.01562Z" fill="url(#paint2_linear_4959_804)"/>
<path d="M74.4367 132.813H54.194C53.2291 132.813 45.9844 141.408 45.9844 141.408H83.298C83.298 141.408 75.1028 132.813 74.4367 132.813Z" fill="url(#paint3_linear_4959_804)"/>
<path d="M37.9243 44.2559L39.4378 38.4351L51.8103 24.6697C51.8103 24.6697 50.7172 29.9381 50.1162 30.5944L41.0067 40.5417L40.1175 46.6566L36.3535 51.1022L37.9243 44.2559Z" fill="#160247"/>
<path d="M36.5224 50.6359L49.1301 36.8688C49.7311 36.2125 50.8241 30.9441 50.8241 30.9441L38.4517 44.7095C38.4517 44.7095 36.1075 51.0889 36.5224 50.6359Z" fill="#160247"/>
<path d="M73.2848 94.745L75.4683 89.141L89.3652 76.916C89.3652 76.916 87.6642 82.021 86.9902 82.602L76.7802 91.416L75.1823 97.385L70.9243 101.36L73.2848 94.745Z" fill="#160247"/>
<path d="M71.1465 100.917L85.2768 88.718C85.9508 88.137 87.6528 83.032 87.6528 83.032L73.7554 95.257C73.7554 95.257 70.6816 101.318 71.1465 100.917Z" fill="#160247"/>
<path d="M89.0082 49.2242L75.0566 33.9892C74.3915 33.2629 75.6652 27.1848 75.6652 27.1848L89.2012 42.4335C89.2012 42.4335 89.4672 49.7255 89.0082 49.2242Z" fill="#160247"/>
<path d="M73.4288 74.2979C73.4288 73.7592 68.7757 66.365 68.7757 66.365C68.7757 66.365 64.1226 73.8082 64.1226 74.2979C64.1226 74.7876 67.6165 79.381 68.7757 79.521C69.9349 79.661 73.4288 74.8365 73.4288 74.2979Z" fill="#160247"/>
<path d="M48.2073 22.4705C48.2073 22.058 44.6508 16.3958 44.6508 16.3958C44.6508 16.3958 41.0942 22.0955 41.0942 22.4705C41.0942 22.8455 43.7648 26.3629 44.6508 26.4702C45.5368 26.5775 48.2073 22.883 48.2073 22.4705Z" fill="#160247"/>
<path d="M41.9762 28.1768C41.9174 27.7685 37.59 22.6711 37.59 22.6711C37.59 22.6711 34.8824 28.8197 34.9358 29.1908C34.9893 29.562 38.134 32.6629 39.0262 32.6428C39.9185 32.6227 42.035 28.5851 41.9762 28.1768Z" fill="#160247"/>
<path d="M30 114H24C22.8954 114 22 114.895 22 116V144C22 145.105 22.8954 146 24 146H30C31.1046 146 32 145.105 32 144V116C32 114.895 31.1046 114 30 114Z" fill="#03FFF7"/>
<path d="M11 127V133C11 134.105 11.8954 135 13 135H41C42.1046 135 43 134.105 43 133V127C43 125.895 42.1046 125 41 125H13C11.8954 125 11 125.895 11 127Z" fill="#03FFF7"/>
<defs>
<linearGradient id="paint0_linear_4959_804" x1="80.7768" y1="137.285" x2="96.2148" y2="105.848" gradientUnits="userSpaceOnUse">
<stop stop-color="#03FFF7"/>
<stop offset="1" stop-color="#FF00F7"/>
</linearGradient>
<linearGradient id="paint1_linear_4959_804" x1="46.0291" y1="137.288" x2="30.5914" y2="105.851" gradientUnits="userSpaceOnUse">
<stop stop-color="#03FFF7"/>
<stop offset="1" stop-color="#FF00F7"/>
</linearGradient>
<linearGradient id="paint2_linear_4959_804" x1="65.5789" y1="42.9" x2="45.8109" y2="27.8428" gradientUnits="userSpaceOnUse">
<stop stop-color="#03FFF7"/>
<stop offset="1" stop-color="#FF00F7"/>
</linearGradient>
<linearGradient id="paint3_linear_4959_804" x1="78.466" y1="140.551" x2="77.615" y2="131.239" gradientUnits="userSpaceOnUse">
<stop stop-color="#03FFF7"/>
<stop offset="1" stop-color="#FF00F7"/>
</linearGradient>
</defs>
</svg>
