<svg width="208" height="117" viewBox="0 0 208 117" fill="none" xmlns="http://www.w3.org/2000/svg">
<path d="M92.84 80L99.464 59.136H104.712L111.336 80H106.696L103.816 69.248C103.517 68.1813 103.219 67.0613 102.92 65.888C102.643 64.7147 102.355 63.5733 102.056 62.464H101.928C101.672 63.5733 101.395 64.7147 101.096 65.888C100.819 67.0613 100.531 68.1813 100.232 69.248L97.32 80H92.84ZM97.064 74.816V71.392H107.048V74.816H97.064ZM113.716 80V59.136H126.708V62.816H118.1V68H125.46V71.68H118.1V80H113.716ZM127.652 80L134.277 59.136H139.525L146.149 80H141.509L138.629 69.248C138.33 68.1813 138.031 67.0613 137.733 65.888C137.455 64.7147 137.167 63.5733 136.869 62.464H136.741C136.485 63.5733 136.207 64.7147 135.909 65.888C135.631 67.0613 135.343 68.1813 135.045 69.248L132.133 80H127.652ZM131.877 74.816V71.392H141.861V74.816H131.877ZM156.912 80.384C155.056 80.384 153.413 79.9467 151.984 79.072C150.576 78.1973 149.477 76.9493 148.688 75.328C147.899 73.6853 147.504 71.7333 147.504 69.472C147.504 67.2107 147.899 65.28 148.688 63.68C149.477 62.08 150.576 60.864 151.984 60.032C153.413 59.1787 155.056 58.752 156.912 58.752C158.768 58.752 160.4 59.1787 161.808 60.032C163.216 60.864 164.315 62.08 165.104 63.68C165.893 65.28 166.288 67.2107 166.288 69.472C166.288 71.7333 165.893 73.6853 165.104 75.328C164.315 76.9493 163.216 78.1973 161.808 79.072C160.4 79.9467 158.768 80.384 156.912 80.384ZM163.696 85.728C161.456 85.728 159.568 85.1733 158.032 84.064C156.517 82.9547 155.419 81.5467 154.736 79.84L159.216 79.424C159.472 80.0853 159.856 80.6187 160.368 81.024C160.901 81.4293 161.499 81.728 162.16 81.92C162.821 82.112 163.504 82.208 164.208 82.208C164.656 82.208 165.072 82.1653 165.456 82.08C165.84 82.016 166.192 81.9413 166.512 81.856L167.28 85.088C166.917 85.2587 166.427 85.408 165.808 85.536C165.189 85.664 164.485 85.728 163.696 85.728ZM156.912 76.8C157.893 76.8 158.747 76.512 159.472 75.936C160.219 75.3387 160.784 74.496 161.168 73.408C161.573 72.32 161.776 71.008 161.776 69.472C161.776 68.0213 161.573 66.784 161.168 65.76C160.784 64.7147 160.219 63.9147 159.472 63.36C158.747 62.8053 157.893 62.528 156.912 62.528C155.909 62.528 155.035 62.8053 154.288 63.36C153.563 63.9147 152.997 64.7147 152.592 65.76C152.208 66.784 152.016 68.0213 152.016 69.472C152.016 71.008 152.208 72.32 152.592 73.408C152.997 74.496 153.563 75.3387 154.288 75.936C155.035 76.512 155.909 76.8 156.912 76.8ZM180.94 76.96V71.008H175.276V67.872H180.94V61.92H184.172V67.872H189.836V71.008H184.172V76.96H180.94Z" fill="#0A0A09"/>
<path d="M74.1775 58.1172C74.1776 60.4521 58.8455 89.0851 58.8455 89.0851C58.8455 89.0851 66.3932 59.5388 66.3932 58.1172C66.3932 55.7994 53.0257 36.1201 51.4148 34.1473C50.8746 33.4858 51.4148 31.8617 51.4148 31.8617C51.4148 31.8617 74.1775 55.2743 74.1775 58.1172Z" fill="#160247"/>
<path d="M58.6523 61.8967C58.6523 61.8967 46.7052 83.6052 45.7171 83.8681C44.514 84.1883 31.1722 60.9609 31.1722 60.9609L45.7171 38.6935L47.6022 22.726L47.6022 38.6935C47.6022 39.7941 39.5626 58.92 39.116 60.9609C39.116 62.7802 44.7362 73.1423 45.7171 72.8813C46.3187 72.7212 58.6523 61.8967 58.6523 61.8967Z" fill="#160247"/>
<path d="M18.8288 58.1201C18.8288 60.455 34.1608 89.088 34.1608 89.088C34.1608 89.088 26.6131 59.5417 26.6131 58.1201C26.6131 55.8023 39.9806 36.123 41.5916 34.1502C42.1317 33.4888 41.5916 31.8647 41.5916 31.8647C41.5916 31.8647 18.8288 55.2772 18.8288 58.1201Z" fill="#160247"/>
<path d="M64.2236 67.5049L58.832 89.0255C58.832 89.0255 54.892 86.1155 53.7484 83.295C53.1545 81.8301 64.2236 67.5049 64.2236 67.5049Z" fill="url(#paint0_linear_4939_735)"/>
<path d="M28.7827 67.5068L34.1743 89.0274C34.1743 89.0274 38.1143 86.1175 39.2579 83.2969C39.8518 81.8321 28.7827 67.5068 28.7827 67.5068Z" fill="url(#paint1_linear_4939_735)"/>
<path d="M48.5015 18.3074L46.1565 38.5614C46.1565 38.5614 42.3945 22.8695 42.3945 21.7956C42.3945 20.9713 48.5015 18.3074 48.5015 18.3074Z" fill="url(#paint2_linear_4939_735)"/>
<path d="M52.4416 84.9375H41.5467C41.0274 84.9375 37.1282 89.5634 37.1282 89.5634H57.2111C57.2111 89.5634 52.8001 84.9375 52.4416 84.9375Z" fill="url(#paint3_linear_4939_735)"/>
<path d="M32.79 37.2749L33.6045 34.1421L40.2636 26.7333C40.2636 26.7333 39.6753 29.5689 39.3518 29.9221L34.4489 35.2759L33.9704 38.567L31.9445 40.9597L32.79 37.2749Z" fill="#160247"/>
<path d="M32.0354 40.7086L38.821 33.299C39.1445 32.9458 39.7328 30.1102 39.7328 30.1102L33.0737 37.519C33.0737 37.519 31.8121 40.9525 32.0354 40.7086Z" fill="#160247"/>
<path d="M51.8218 64.4485L52.9971 61.4324L60.4766 54.8529C60.4766 54.8529 59.5608 57.6003 59.1983 57.9133L53.7031 62.6571L52.8431 65.8697L50.5514 68.0092L51.8218 64.4485Z" fill="#160247"/>
<path d="M50.6711 67.7703L58.2764 61.2047C58.6389 60.8918 59.5547 58.1444 59.5547 58.1444L52.0752 64.7239C52.0752 64.7239 50.4208 67.9863 50.6711 67.7703Z" fill="#160247"/>
<path d="M60.2844 39.9481L52.7752 31.7484C52.4172 31.3575 53.1028 28.0861 53.1028 28.0861L60.3882 36.2932C60.3882 36.2932 60.5315 40.2179 60.2844 39.9481Z" fill="#160247"/>
<path d="M51.8991 53.4434C51.8991 53.1535 49.3948 49.1738 49.3948 49.1738C49.3948 49.1738 46.8904 53.1799 46.8904 53.4434C46.8904 53.707 48.7709 56.1793 49.3948 56.2547C50.0187 56.3301 51.8991 53.7333 51.8991 53.4434Z" fill="#160247"/>
<path d="M38.3247 25.5498C38.3247 25.3278 36.4105 22.2803 36.4105 22.2803C36.4105 22.2803 34.4963 25.348 34.4963 25.5498C34.4963 25.7516 35.9337 27.6448 36.4105 27.7025C36.8874 27.7603 38.3247 25.7718 38.3247 25.5498Z" fill="#160247"/>
<path d="M34.9712 28.62C34.9395 28.4003 32.6104 25.6568 32.6104 25.6568C32.6104 25.6568 31.1531 28.966 31.1819 29.1658C31.2107 29.3656 32.9032 31.0345 33.3834 31.0237C33.8637 31.0129 35.0028 28.8398 34.9712 28.62Z" fill="#160247"/>
<rect x="24.2195" y="74.8115" width="5.38215" height="17.2229" rx="2" fill="#03FFF7"/>
<rect x="18.2991" y="86.1143" width="5.38215" height="17.2229" rx="2" transform="rotate(-90 18.2991 86.1143)" fill="#03FFF7"/>
<defs>
<linearGradient id="paint0_linear_4939_735" x1="55.8541" y1="87.3439" x2="64.1629" y2="70.4242" gradientUnits="userSpaceOnUse">
<stop stop-color="#03FFF7"/>
<stop offset="1" stop-color="#FF00F7"/>
</linearGradient>
<linearGradient id="paint1_linear_4939_735" x1="37.1522" y1="87.3458" x2="28.8435" y2="70.4261" gradientUnits="userSpaceOnUse">
<stop stop-color="#03FFF7"/>
<stop offset="1" stop-color="#FF00F7"/>
</linearGradient>
<linearGradient id="paint2_linear_4939_735" x1="47.6742" y1="36.5445" x2="37.0348" y2="28.4404" gradientUnits="userSpaceOnUse">
<stop stop-color="#03FFF7"/>
<stop offset="1" stop-color="#FF00F7"/>
</linearGradient>
<linearGradient id="paint3_linear_4939_735" x1="54.6103" y1="89.1022" x2="54.152" y2="84.0905" gradientUnits="userSpaceOnUse">
<stop stop-color="#03FFF7"/>
<stop offset="1" stop-color="#FF00F7"/>
</linearGradient>
</defs>
</svg>
