<svg width="27" height="27" viewBox="0 0 27 27" fill="none" xmlns="http://www.w3.org/2000/svg">
<path d="M12.1822 3.63566H3.48493C2.82588 3.63566 2.19383 3.89747 1.72782 4.36348C1.2618 4.82949 1 5.46155 1 6.12059V23.5151C1 24.1741 1.2618 24.8062 1.72782 25.2722C2.19383 25.7382 2.82588 26 3.48493 26H20.8794C21.5385 26 22.1705 25.7382 22.6365 25.2722C23.1025 24.8062 23.3643 24.1741 23.3643 23.5151V14.8178M21.5006 1.77197C21.9949 1.27769 22.6653 1 23.3643 1C24.0634 1 24.7337 1.27769 25.228 1.77197C25.7223 2.26625 26 2.93664 26 3.63566C26 4.33468 25.7223 5.00507 25.228 5.49936L13.4246 17.3028L8.45478 18.5452L9.69724 13.5754L21.5006 1.77197Z" stroke="#000957" stroke-linecap="round" stroke-linejoin="round"/>
</svg>
