<svg width="200" height="117" viewBox="0 0 200 117" fill="none" xmlns="http://www.w3.org/2000/svg">
<g clip-path="url(#clip0_158_417)">
<path d="M73.8785 45.8081C73.8786 48.143 58.5465 76.776 58.5465 76.776C58.5465 76.776 66.0942 47.2297 66.0942 45.8081C66.0942 43.4903 52.7267 23.811 51.1158 21.8382C50.5756 21.1768 51.1158 19.5527 51.1158 19.5527C51.1158 19.5527 73.8785 42.9652 73.8785 45.8081Z" fill="#160247"/>
<path d="M58.3531 49.5886C58.3531 49.5886 46.406 71.2971 45.4179 71.56C44.2148 71.8802 30.873 48.6528 30.873 48.6528L45.4179 26.3854L47.303 10.418V26.3854C47.303 27.486 39.2634 46.6119 38.8168 48.6528C38.8168 50.4722 44.437 60.8342 45.4179 60.5732C46.0195 60.4131 58.3531 49.5886 58.3531 49.5886Z" fill="#160247"/>
<path d="M18.5298 45.8111C18.5298 48.146 33.8618 76.779 33.8618 76.779C33.8618 76.779 26.3141 47.2327 26.3141 45.8111C26.3141 43.4934 39.6816 23.8141 41.2926 21.8412C41.8327 21.1798 41.2926 19.5557 41.2926 19.5557C41.2926 19.5557 18.5298 42.9682 18.5298 45.8111Z" fill="#160247"/>
<path d="M63.9245 55.1973L58.5329 76.7179C58.5329 76.7179 54.5929 73.8079 53.4493 70.9874C52.8554 69.5225 63.9245 55.1973 63.9245 55.1973Z" fill="url(#paint0_linear_158_417)"/>
<path d="M28.4834 55.1992L33.875 76.7198C33.875 76.7198 37.815 73.8099 38.9586 70.9893C39.5525 69.5245 28.4834 55.1992 28.4834 55.1992Z" fill="url(#paint1_linear_158_417)"/>
<path d="M48.2025 6L45.8575 26.254C45.8575 26.254 42.0955 10.5621 42.0955 9.4882C42.0955 8.6639 48.2025 6 48.2025 6Z" fill="url(#paint2_linear_158_417)"/>
<path d="M52.1425 72.6299H41.2476C40.7283 72.6299 36.8291 77.2558 36.8291 77.2558H56.912C56.912 77.2558 52.501 72.6299 52.1425 72.6299Z" fill="url(#paint3_linear_158_417)"/>
<path d="M32.491 24.9674L33.3055 21.8346L39.9646 14.4258C39.9646 14.4258 39.3763 17.2614 39.0528 17.6146L34.1499 22.9684L33.6714 26.2595L31.6455 28.6522L32.491 24.9674Z" fill="#160247"/>
<path d="M31.7362 28.4011L38.5218 20.9915C38.8453 20.6383 39.4336 17.8027 39.4336 17.8027L32.7745 25.2115C32.7745 25.2115 31.5129 28.645 31.7362 28.4011Z" fill="#160247"/>
<path d="M51.5228 52.1405L52.6981 49.1244L60.1776 42.5449C60.1776 42.5449 59.2618 45.2923 58.8993 45.6053L53.4041 50.3491L52.5441 53.5617L50.2524 55.7012L51.5228 52.1405Z" fill="#160247"/>
<path d="M50.372 55.4628L57.9773 48.8972C58.3398 48.5843 59.2556 45.8369 59.2556 45.8369L51.7761 52.4164C51.7761 52.4164 50.1217 55.6788 50.372 55.4628Z" fill="#160247"/>
<path d="M59.9853 27.6403L52.4761 19.4406C52.1181 19.0497 52.8037 15.7783 52.8037 15.7783L60.0891 23.9854C60.0891 23.9854 60.2324 27.9101 59.9853 27.6403Z" fill="#160247"/>
<path d="M51.6 41.1358C51.6 40.8459 49.0957 36.8662 49.0957 36.8662C49.0957 36.8662 46.5913 40.8723 46.5913 41.1358C46.5913 41.3994 48.4718 43.8717 49.0957 43.9471C49.7196 44.0225 51.6 41.4257 51.6 41.1358Z" fill="#160247"/>
<path d="M38.0257 13.2422C38.0257 13.0202 36.1115 9.97266 36.1115 9.97266C36.1115 9.97266 34.1973 13.0404 34.1973 13.2422C34.1973 13.444 35.6347 15.3372 36.1115 15.3949C36.5884 15.4527 38.0257 13.4642 38.0257 13.2422Z" fill="#160247"/>
<path d="M34.672 16.3128C34.6403 16.0931 32.3112 13.3496 32.3112 13.3496C32.3112 13.3496 30.8539 16.6588 30.8827 16.8586C30.9115 17.0584 32.604 18.7273 33.0842 18.7165C33.5645 18.7057 34.7036 16.5326 34.672 16.3128Z" fill="#160247"/>
<path d="M27.3026 62.5039H25.9204C24.8158 62.5039 23.9204 63.3993 23.9204 64.5039V77.7268C23.9204 78.8314 24.8158 79.7268 25.9204 79.7268H27.3026C28.4071 79.7268 29.3026 78.8314 29.3026 77.7268V64.5039C29.3026 63.3993 28.4071 62.5039 27.3026 62.5039Z" fill="#03FFF7"/>
<path d="M18 70.4245V71.8066C18 72.9112 18.8954 73.8066 20 73.8066H33.2229C34.3275 73.8066 35.2229 72.9112 35.2229 71.8066V70.4245C35.2229 69.3199 34.3275 68.4245 33.2229 68.4245H20C18.8954 68.4245 18 69.3199 18 70.4245Z" fill="#03FFF7"/>
</g>
<g clip-path="url(#clip1_158_417)">
<path d="M92.8401 76L99.4641 55.136H104.712L111.336 76H106.696L103.816 65.248C103.517 64.1813 103.219 63.0613 102.92 61.888C102.643 60.7146 102.355 59.5733 102.056 58.464H101.928C101.672 59.5733 101.395 60.7146 101.096 61.888C100.819 63.0613 100.531 64.1813 100.232 65.248L97.3201 76H92.8401ZM97.0641 70.816V67.392H107.048V70.816H97.0641ZM113.716 76V55.136H126.708V58.816H118.1V64H125.46V67.68H118.1V76H113.716ZM127.653 76L134.277 55.136H139.525L146.149 76H141.509L138.629 65.248C138.33 64.1813 138.031 63.0613 137.733 61.888C137.455 60.7146 137.167 59.5733 136.869 58.464H136.741C136.485 59.5733 136.207 60.7146 135.909 61.888C135.631 63.0613 135.343 64.1813 135.045 65.248L132.133 76H127.653ZM131.877 70.816V67.392H141.861V70.816H131.877ZM156.912 76.384C155.056 76.384 153.413 75.9467 151.984 75.072C150.576 74.1973 149.477 72.9493 148.688 71.328C147.899 69.6853 147.504 67.7333 147.504 65.472C147.504 63.2106 147.899 61.28 148.688 59.68C149.477 58.08 150.576 56.864 151.984 56.032C153.413 55.1786 155.056 54.752 156.912 54.752C158.768 54.752 160.4 55.1786 161.808 56.032C163.216 56.864 164.315 58.08 165.104 59.68C165.893 61.28 166.288 63.2106 166.288 65.472C166.288 67.7333 165.893 69.6853 165.104 71.328C164.315 72.9493 163.216 74.1973 161.808 75.072C160.4 75.9467 158.768 76.384 156.912 76.384ZM163.696 81.728C161.456 81.728 159.568 81.1733 158.032 80.064C156.517 78.9547 155.419 77.5467 154.736 75.84L159.216 75.424C159.472 76.0853 159.856 76.6187 160.368 77.024C160.901 77.4293 161.499 77.728 162.16 77.92C162.821 78.112 163.504 78.208 164.208 78.208C164.656 78.208 165.072 78.1653 165.456 78.08C165.84 78.016 166.192 77.9413 166.512 77.856L167.28 81.088C166.917 81.2587 166.427 81.408 165.808 81.536C165.189 81.664 164.485 81.728 163.696 81.728ZM156.912 72.8C157.893 72.8 158.747 72.512 159.472 71.936C160.219 71.3387 160.784 70.496 161.168 69.408C161.573 68.32 161.776 67.008 161.776 65.472C161.776 64.0213 161.573 62.784 161.168 61.76C160.784 60.7146 160.219 59.9146 159.472 59.36C158.747 58.8053 157.893 58.528 156.912 58.528C155.909 58.528 155.035 58.8053 154.288 59.36C153.563 59.9146 152.997 60.7146 152.592 61.76C152.208 62.784 152.016 64.0213 152.016 65.472C152.016 67.008 152.208 68.32 152.592 69.408C152.997 70.496 153.563 71.3387 154.288 71.936C155.035 72.512 155.909 72.8 156.912 72.8ZM180.94 72.96V67.008H175.276V63.872H180.94V57.92H184.172V63.872H189.836V67.008H184.172V72.96H180.94Z" fill="#0A0A09"/>
</g>
<defs>
<linearGradient id="paint0_linear_158_417" x1="55.555" y1="75.0363" x2="63.8638" y2="58.1166" gradientUnits="userSpaceOnUse">
<stop stop-color="#03FFF7"/>
<stop offset="1" stop-color="#FF00F7"/>
</linearGradient>
<linearGradient id="paint1_linear_158_417" x1="36.8529" y1="75.0382" x2="28.5441" y2="58.1185" gradientUnits="userSpaceOnUse">
<stop stop-color="#03FFF7"/>
<stop offset="1" stop-color="#FF00F7"/>
</linearGradient>
<linearGradient id="paint2_linear_158_417" x1="47.3752" y1="24.2371" x2="36.7358" y2="16.133" gradientUnits="userSpaceOnUse">
<stop stop-color="#03FFF7"/>
<stop offset="1" stop-color="#FF00F7"/>
</linearGradient>
<linearGradient id="paint3_linear_158_417" x1="54.3112" y1="76.7946" x2="53.8529" y2="71.7829" gradientUnits="userSpaceOnUse">
<stop stop-color="#03FFF7"/>
<stop offset="1" stop-color="#FF00F7"/>
</linearGradient>
<clipPath id="clip0_158_417">
<rect width="100" height="117" fill="white"/>
</clipPath>
<clipPath id="clip1_158_417">
<rect width="98" height="28" fill="white" transform="translate(92 54)"/>
</clipPath>
</defs>
</svg>
