<svg width="186" height="216" viewBox="0 0 186 216" fill="none" xmlns="http://www.w3.org/2000/svg">
<path d="M137.822 107.981C137.822 112.319 109.335 165.519 109.335 165.519C109.335 165.519 123.359 110.623 123.359 107.981C123.359 103.675 98.522 67.1108 95.5289 63.4453C94.5253 62.2163 95.5289 59.1988 95.5289 59.1988C95.5289 59.1988 137.822 102.699 137.822 107.981Z" fill="#160247"/>
<path d="M108.976 115.004C108.976 115.004 86.7787 155.338 84.9428 155.826C82.7075 156.421 57.9184 113.265 57.9184 113.265L84.9428 71.8921L88.4453 42.2247L88.4453 71.8921C88.4453 73.9371 73.5079 109.473 72.678 113.265C72.678 116.645 83.1204 135.898 84.9428 135.413C86.0606 135.115 108.976 115.004 108.976 115.004Z" fill="#160247"/>
<path d="M34.9847 107.985C34.9846 112.324 63.4714 165.524 63.4714 165.524C63.4714 165.524 49.4479 110.627 49.4479 107.985C49.4479 103.679 74.2846 67.115 77.2778 63.4495C78.2813 62.2205 77.2778 59.2029 77.2778 59.2029C77.2778 59.2029 34.9847 102.703 34.9847 107.985Z" fill="#160247"/>
<path d="M119.328 125.424L109.31 165.409C109.31 165.409 101.99 160.002 99.8648 154.762C98.7613 152.04 119.328 125.424 119.328 125.424Z" fill="url(#paint0_linear_4124_1662)"/>
<path d="M53.4785 125.427L63.4961 165.412C63.4961 165.412 70.8166 160.006 72.9414 154.765C74.0449 152.043 53.4785 125.427 53.4785 125.427Z" fill="url(#paint1_linear_4124_1662)"/>
<path d="M90.1158 34.0156L85.7587 71.6474C85.7587 71.6474 78.7689 42.492 78.7689 40.4967C78.7689 38.9651 90.1158 34.0156 90.1158 34.0156Z" fill="url(#paint2_linear_4124_1662)"/>
<path d="M97.4367 157.813H77.194C76.2291 157.813 68.9844 166.408 68.9844 166.408H106.298C106.298 166.408 98.1028 157.813 97.4367 157.813Z" fill="url(#paint3_linear_4124_1662)"/>
<path d="M60.9243 69.2559L62.4378 63.4351L74.8103 49.6697C74.8103 49.6697 73.7172 54.9381 73.1162 55.5944L64.0067 65.5417L63.1175 71.6566L59.3535 76.1022L60.9243 69.2559Z" fill="#160247"/>
<path d="M59.5223 75.6359L72.13 61.8688C72.731 61.2125 73.824 55.9441 73.824 55.9441L61.4516 69.7095C61.4516 69.7095 59.1074 76.0889 59.5223 75.6359Z" fill="#160247"/>
<path d="M96.2846 119.745L98.4681 114.141L112.365 101.916C112.365 101.916 110.664 107.021 109.99 107.602L99.78 116.416L98.1821 122.385L93.9241 126.36L96.2846 119.745Z" fill="#160247"/>
<path d="M94.1467 125.917L108.277 113.718C108.951 113.137 110.653 108.032 110.653 108.032L96.7556 120.257C96.7556 120.257 93.6818 126.318 94.1467 125.917Z" fill="#160247"/>
<path d="M112.008 74.2241L98.0564 58.9891C97.3913 58.2628 98.665 52.1847 98.665 52.1847L112.201 67.4334C112.201 67.4334 112.467 74.7254 112.008 74.2241Z" fill="#160247"/>
<path d="M96.4288 99.2979C96.4288 98.7592 91.7757 91.365 91.7757 91.365C91.7757 91.365 87.1226 98.8082 87.1226 99.2979C87.1226 99.7876 90.6165 104.381 91.7757 104.521C92.9349 104.661 96.4288 99.8365 96.4288 99.2979Z" fill="#160247"/>
<path d="M71.2073 47.4705C71.2073 47.058 67.6508 41.3958 67.6508 41.3958C67.6508 41.3958 64.0942 47.0955 64.0942 47.4705C64.0942 47.8455 66.7648 51.363 67.6508 51.4703C68.5368 51.5776 71.2073 47.883 71.2073 47.4705Z" fill="#160247"/>
<path d="M64.9762 53.1769C64.9174 52.7686 60.59 47.6712 60.59 47.6712C60.59 47.6712 57.8824 53.8198 57.9358 54.1909C57.9893 54.5621 61.134 57.663 62.0262 57.6429C62.9185 57.6228 65.035 53.5852 64.9762 53.1769Z" fill="#160247"/>
<rect x="45" y="139" width="10" height="32" rx="2" fill="#03FFF7"/>
<rect x="34" y="160" width="10" height="32" rx="2" transform="rotate(-90 34 160)" fill="#03FFF7"/>
<defs>
<linearGradient id="paint0_linear_4124_1662" x1="103.777" y1="162.285" x2="119.215" y2="130.848" gradientUnits="userSpaceOnUse">
<stop stop-color="#03FFF7"/>
<stop offset="1" stop-color="#FF00F7"/>
</linearGradient>
<linearGradient id="paint1_linear_4124_1662" x1="69.0291" y1="162.288" x2="53.5914" y2="130.851" gradientUnits="userSpaceOnUse">
<stop stop-color="#03FFF7"/>
<stop offset="1" stop-color="#FF00F7"/>
</linearGradient>
<linearGradient id="paint2_linear_4124_1662" x1="88.5788" y1="67.9" x2="68.8108" y2="52.8428" gradientUnits="userSpaceOnUse">
<stop stop-color="#03FFF7"/>
<stop offset="1" stop-color="#FF00F7"/>
</linearGradient>
<linearGradient id="paint3_linear_4124_1662" x1="101.466" y1="165.551" x2="100.615" y2="156.239" gradientUnits="userSpaceOnUse">
<stop stop-color="#03FFF7"/>
<stop offset="1" stop-color="#FF00F7"/>
</linearGradient>
</defs>
</svg>
