<svg width="1440" height="1024" viewBox="0 0 1440 1024" fill="none" xmlns="http://www.w3.org/2000/svg">
<g clip-path="url(#clip0_1_8)">
<rect width="1440" height="1024" transform="matrix(-1 0 0 -1 1440 1024)" fill="white"/>
<g filter="url(#filter0_d_1_8)">
<path d="M718.028 1024H-222.028C-249.178 794.034 12.9832 738.738 12.9832 507C12.9832 275.262 -249.178 219.967 -222.028 -10H718.028C745.179 219.967 483.016 275.262 483.016 507C483.016 738.738 745.179 794.034 718.028 1024Z" fill="url(#paint0_linear_1_8)"/>
</g>
<g filter="url(#filter1_d_1_8)">
<path d="M590.028 1034H-350.028C-377.178 804.034 -115.017 748.738 -115.017 517C-115.017 285.262 -377.178 229.967 -350.028 -8.10623e-06H590.028C617.179 229.967 355.016 285.262 355.016 517C355.016 748.738 617.179 804.034 590.028 1034Z" fill="url(#paint1_linear_1_8)"/>
</g>
<g filter="url(#filter2_d_1_8)">
<path d="M443.028 1034H-497.028C-524.178 804.034 -262.017 748.738 -262.017 517C-262.017 285.262 -524.178 229.967 -497.028 -8.10623e-06H443.028C470.179 229.967 208.016 285.262 208.016 517C208.016 748.738 470.179 804.034 443.028 1034Z" fill="url(#paint2_linear_1_8)"/>
</g>
</g>
<defs>
<filter id="filter0_d_1_8" x="-255" y="-37" width="1006" height="1096" filterUnits="userSpaceOnUse" color-interpolation-filters="sRGB">
<feFlood flood-opacity="0" result="BackgroundImageFix"/>
<feColorMatrix in="SourceAlpha" type="matrix" values="0 0 0 0 0 0 0 0 0 0 0 0 0 0 0 0 0 0 127 0" result="hardAlpha"/>
<feOffset dy="4"/>
<feGaussianBlur stdDeviation="15.5"/>
<feComposite in2="hardAlpha" operator="out"/>
<feColorMatrix type="matrix" values="0 0 0 0 0.952885 0 0 0 0 0.952885 0 0 0 0 0.952885 0 0 0 0.67 0"/>
<feBlend mode="normal" in2="BackgroundImageFix" result="effect1_dropShadow_1_8"/>
<feBlend mode="normal" in="SourceGraphic" in2="effect1_dropShadow_1_8" result="shape"/>
</filter>
<filter id="filter1_d_1_8" x="-383" y="-27" width="1006" height="1096" filterUnits="userSpaceOnUse" color-interpolation-filters="sRGB">
<feFlood flood-opacity="0" result="BackgroundImageFix"/>
<feColorMatrix in="SourceAlpha" type="matrix" values="0 0 0 0 0 0 0 0 0 0 0 0 0 0 0 0 0 0 127 0" result="hardAlpha"/>
<feOffset dy="4"/>
<feGaussianBlur stdDeviation="15.5"/>
<feComposite in2="hardAlpha" operator="out"/>
<feColorMatrix type="matrix" values="0 0 0 0 0.952885 0 0 0 0 0.952885 0 0 0 0 0.952885 0 0 0 0.67 0"/>
<feBlend mode="normal" in2="BackgroundImageFix" result="effect1_dropShadow_1_8"/>
<feBlend mode="normal" in="SourceGraphic" in2="effect1_dropShadow_1_8" result="shape"/>
</filter>
<filter id="filter2_d_1_8" x="-530" y="-27" width="1006" height="1096" filterUnits="userSpaceOnUse" color-interpolation-filters="sRGB">
<feFlood flood-opacity="0" result="BackgroundImageFix"/>
<feColorMatrix in="SourceAlpha" type="matrix" values="0 0 0 0 0 0 0 0 0 0 0 0 0 0 0 0 0 0 127 0" result="hardAlpha"/>
<feOffset dy="4"/>
<feGaussianBlur stdDeviation="15.5"/>
<feComposite in2="hardAlpha" operator="out"/>
<feColorMatrix type="matrix" values="0 0 0 0 0.952885 0 0 0 0 0.952885 0 0 0 0 0.952885 0 0 0 0.67 0"/>
<feBlend mode="normal" in2="BackgroundImageFix" result="effect1_dropShadow_1_8"/>
<feBlend mode="normal" in="SourceGraphic" in2="effect1_dropShadow_1_8" result="shape"/>
</filter>
<linearGradient id="paint0_linear_1_8" x1="-188.851" y1="449.277" x2="652.126" y2="110.25" gradientUnits="userSpaceOnUse">
<stop stop-color="#FFCC00"/>
<stop offset="1" stop-color="#FDF5D5"/>
</linearGradient>
<linearGradient id="paint1_linear_1_8" x1="120" y1="1034" x2="120" y2="0" gradientUnits="userSpaceOnUse">
<stop stop-color="#FFCC00"/>
<stop offset="1" stop-color="#FFEA95"/>
</linearGradient>
<linearGradient id="paint2_linear_1_8" x1="-27" y1="1034" x2="-27" y2="0" gradientUnits="userSpaceOnUse">
<stop stop-color="#FFBF00"/>
<stop offset="1" stop-color="#FFEA95"/>
</linearGradient>
<clipPath id="clip0_1_8">
<rect width="1440" height="1024" fill="white" transform="matrix(-1 0 0 -1 1440 1024)"/>
</clipPath>
</defs>
</svg>
