<svg width="62" height="46" viewBox="0 0 62 46" fill="none" xmlns="http://www.w3.org/2000/svg">
<g filter="url(#filter0_d_1_35)">
<path d="M37.9565 6.30978L40.2406 7.75484L20.7091 18.989L18.2851 17.4507L37.9565 6.30978Z" fill="white"/>
</g>
<g filter="url(#filter1_d_1_35)">
<path d="M46.8134 11.9035L49.4238 13.1155L32.0521 23.1471C30.5239 24.0295 28.632 23.99 27.1421 23.0444L46.8134 11.9035Z" fill="white"/>
</g>
<g filter="url(#filter2_d_1_35)">
<path d="M31.4771 16.4255L33.8544 18.0104L26.5359 22.3922L23.9721 20.9065L31.4771 16.4255Z" fill="white"/>
</g>
<g filter="url(#filter3_d_1_35)">
<path d="M28.2141 1.13596L30.5914 2.72085L11.8058 13.3956C10.7212 12.749 10.7341 11.174 11.829 10.5452L28.2141 1.13596Z" fill="white"/>
</g>
<g filter="url(#filter4_d_1_35)">
<path d="M29.5191 7.14914L31.8032 8.78065L17.5858 16.9849L15.1152 15.406L29.5191 7.14914Z" fill="white"/>
</g>
<g filter="url(#filter5_d_1_35)">
<path d="M23.1795 17.5441L28.6334 21.1335L26.3027 22.5319L20.7089 18.9892L23.1795 17.5441Z" fill="white"/>
</g>
<g filter="url(#filter6_d_1_35)">
<path d="M40.4271 4.86496L46.8599 8.87382L43.9698 10.4121L37.9565 6.31001L40.4271 4.86496Z" fill="white"/>
</g>
<g filter="url(#filter7_d_1_35)">
<path d="M49.0977 10.486L49.7492 10.8954C50.5083 11.3724 50.4833 12.4869 49.7036 12.9294L47.0932 11.6708L49.0977 10.486Z" fill="white"/>
</g>
<g filter="url(#filter8_d_1_35)">
<path d="M32.643 3.97922L28.9135 6.21652L26.8159 4.81808L30.4516 2.62766L32.643 3.97922ZM28.4467 3.96555L29.726 4.80539L31.1508 3.96555L29.8374 3.14425L28.4467 3.96555Z" fill="white"/>
</g>
<g filter="url(#filter9_d_1_35)">
<path d="M31.477 16.425L27.8413 18.6623L25.7436 17.2639L29.2866 15.0734L31.477 16.425ZM27.7944 16.924L29.1001 17.8137L30.478 16.924L29.1381 16.052L27.7944 16.924Z" fill="white"/>
</g>
<g filter="url(#filter10_d_1_35)">
<path d="M14.4627 11.7639L20.3827 15.3066L17.6325 16.9847L11.8056 13.3954L14.4627 11.7639Z" fill="white"/>
</g>
<g filter="url(#filter11_d_1_35)">
<path d="M35.2996 14.0012L37.4905 15.353L34.7402 17.0311L32.6425 15.6327L35.2996 14.0012Z" fill="white"/>
</g>
<g filter="url(#filter12_d_1_35)">
<path d="M29.097 0.618282C30.4423 -0.207799 32.1381 -0.205963 33.4817 0.623022L30.7314 2.30115L28.6338 0.902712L29.097 0.618282Z" fill="white"/>
</g>
<g filter="url(#filter13_d_1_35)">
<path d="M33.7146 0.762909L35.9055 2.11473L33.1552 3.79286L31.0576 2.39442L33.7146 0.762909Z" fill="white"/>
</g>
<path d="M16.6283 20.3925C16.6603 19.6236 17.5126 19.1775 18.1627 19.5895L28.9058 26.3974C29.2248 26.5996 29.6306 26.6047 29.9547 26.4107L41.3841 19.5689C42.0507 19.1699 42.8977 19.6501 42.8977 20.4269V23.7029C42.8977 24.0474 42.7205 24.3676 42.4285 24.5504L29.9673 32.3548C29.6373 32.5615 29.2173 32.5578 28.8909 32.3454L16.9445 24.5673C16.6486 24.3746 16.4763 24.0403 16.491 23.6876L16.6283 20.3925Z" fill="#FFCC00"/>
<path d="M47.8388 16.0991L48.6313 15.5398V21.0403H47.8388V16.0991Z" fill="#FFCC00"/>
<path d="M47.0515 21.1319C47.6101 21.0656 47.7725 20.9929 47.8388 20.4343H48.6312C48.6975 20.9929 48.8133 21.0656 49.3719 21.1319L49.8045 21.1832C49.8561 21.1893 49.8561 21.2641 49.8045 21.2703L49.3719 21.3216C48.8133 21.3879 48.3729 21.8283 48.3066 22.3869L48.2553 22.8196C48.2491 22.8711 48.1743 22.8711 48.1682 22.8196L48.1168 22.3869C48.0506 21.8283 47.6101 21.3879 47.0515 21.3216L46.6189 21.2703C46.5673 21.2641 46.5673 21.1893 46.6189 21.1832L47.0515 21.1319Z" fill="#FFCC00"/>
<defs>
<filter id="filter0_d_1_35" x="7.48506" y="6.30978" width="43.5555" height="34.4792" filterUnits="userSpaceOnUse" color-interpolation-filters="sRGB">
<feFlood flood-opacity="0" result="BackgroundImageFix"/>
<feColorMatrix in="SourceAlpha" type="matrix" values="0 0 0 0 0 0 0 0 0 0 0 0 0 0 0 0 0 0 127 0" result="hardAlpha"/>
<feOffset dy="11"/>
<feGaussianBlur stdDeviation="5.4"/>
<feComposite in2="hardAlpha" operator="out"/>
<feColorMatrix type="matrix" values="0 0 0 0 0 0 0 0 0 0 0 0 0 0 0 0 0 0 0.14 0"/>
<feBlend mode="normal" in2="BackgroundImageFix" result="effect1_dropShadow_1_35"/>
<feBlend mode="normal" in="SourceGraphic" in2="effect1_dropShadow_1_35" result="shape"/>
</filter>
<filter id="filter1_d_1_35" x="16.3421" y="11.9035" width="43.8817" height="33.6788" filterUnits="userSpaceOnUse" color-interpolation-filters="sRGB">
<feFlood flood-opacity="0" result="BackgroundImageFix"/>
<feColorMatrix in="SourceAlpha" type="matrix" values="0 0 0 0 0 0 0 0 0 0 0 0 0 0 0 0 0 0 127 0" result="hardAlpha"/>
<feOffset dy="11"/>
<feGaussianBlur stdDeviation="5.4"/>
<feComposite in2="hardAlpha" operator="out"/>
<feColorMatrix type="matrix" values="0 0 0 0 0 0 0 0 0 0 0 0 0 0 0 0 0 0 0.14 0"/>
<feBlend mode="normal" in2="BackgroundImageFix" result="effect1_dropShadow_1_35"/>
<feBlend mode="normal" in="SourceGraphic" in2="effect1_dropShadow_1_35" result="shape"/>
</filter>
<filter id="filter2_d_1_35" x="13.1721" y="16.4255" width="31.4823" height="27.7667" filterUnits="userSpaceOnUse" color-interpolation-filters="sRGB">
<feFlood flood-opacity="0" result="BackgroundImageFix"/>
<feColorMatrix in="SourceAlpha" type="matrix" values="0 0 0 0 0 0 0 0 0 0 0 0 0 0 0 0 0 0 127 0" result="hardAlpha"/>
<feOffset dy="11"/>
<feGaussianBlur stdDeviation="5.4"/>
<feComposite in2="hardAlpha" operator="out"/>
<feColorMatrix type="matrix" values="0 0 0 0 0 0 0 0 0 0 0 0 0 0 0 0 0 0 0.14 0"/>
<feBlend mode="normal" in2="BackgroundImageFix" result="effect1_dropShadow_1_35"/>
<feBlend mode="normal" in="SourceGraphic" in2="effect1_dropShadow_1_35" result="shape"/>
</filter>
<filter id="filter3_d_1_35" x="0.2" y="1.13596" width="41.1914" height="34.0596" filterUnits="userSpaceOnUse" color-interpolation-filters="sRGB">
<feFlood flood-opacity="0" result="BackgroundImageFix"/>
<feColorMatrix in="SourceAlpha" type="matrix" values="0 0 0 0 0 0 0 0 0 0 0 0 0 0 0 0 0 0 127 0" result="hardAlpha"/>
<feOffset dy="11"/>
<feGaussianBlur stdDeviation="5.4"/>
<feComposite in2="hardAlpha" operator="out"/>
<feColorMatrix type="matrix" values="0 0 0 0 0 0 0 0 0 0 0 0 0 0 0 0 0 0 0.14 0"/>
<feBlend mode="normal" in2="BackgroundImageFix" result="effect1_dropShadow_1_35"/>
<feBlend mode="normal" in="SourceGraphic" in2="effect1_dropShadow_1_35" result="shape"/>
</filter>
<filter id="filter4_d_1_35" x="4.31517" y="7.14914" width="38.288" height="31.6358" filterUnits="userSpaceOnUse" color-interpolation-filters="sRGB">
<feFlood flood-opacity="0" result="BackgroundImageFix"/>
<feColorMatrix in="SourceAlpha" type="matrix" values="0 0 0 0 0 0 0 0 0 0 0 0 0 0 0 0 0 0 127 0" result="hardAlpha"/>
<feOffset dy="11"/>
<feGaussianBlur stdDeviation="5.4"/>
<feComposite in2="hardAlpha" operator="out"/>
<feColorMatrix type="matrix" values="0 0 0 0 0 0 0 0 0 0 0 0 0 0 0 0 0 0 0.14 0"/>
<feBlend mode="normal" in2="BackgroundImageFix" result="effect1_dropShadow_1_35"/>
<feBlend mode="normal" in="SourceGraphic" in2="effect1_dropShadow_1_35" result="shape"/>
</filter>
<filter id="filter5_d_1_35" x="9.90887" y="17.5441" width="29.5245" height="26.7878" filterUnits="userSpaceOnUse" color-interpolation-filters="sRGB">
<feFlood flood-opacity="0" result="BackgroundImageFix"/>
<feColorMatrix in="SourceAlpha" type="matrix" values="0 0 0 0 0 0 0 0 0 0 0 0 0 0 0 0 0 0 127 0" result="hardAlpha"/>
<feOffset dy="11"/>
<feGaussianBlur stdDeviation="5.4"/>
<feComposite in2="hardAlpha" operator="out"/>
<feColorMatrix type="matrix" values="0 0 0 0 0 0 0 0 0 0 0 0 0 0 0 0 0 0 0.14 0"/>
<feBlend mode="normal" in2="BackgroundImageFix" result="effect1_dropShadow_1_35"/>
<feBlend mode="normal" in="SourceGraphic" in2="effect1_dropShadow_1_35" result="shape"/>
</filter>
<filter id="filter6_d_1_35" x="27.1565" y="4.86496" width="30.5034" height="27.3471" filterUnits="userSpaceOnUse" color-interpolation-filters="sRGB">
<feFlood flood-opacity="0" result="BackgroundImageFix"/>
<feColorMatrix in="SourceAlpha" type="matrix" values="0 0 0 0 0 0 0 0 0 0 0 0 0 0 0 0 0 0 127 0" result="hardAlpha"/>
<feOffset dy="11"/>
<feGaussianBlur stdDeviation="5.4"/>
<feComposite in2="hardAlpha" operator="out"/>
<feColorMatrix type="matrix" values="0 0 0 0 0 0 0 0 0 0 0 0 0 0 0 0 0 0 0.14 0"/>
<feBlend mode="normal" in2="BackgroundImageFix" result="effect1_dropShadow_1_35"/>
<feBlend mode="normal" in="SourceGraphic" in2="effect1_dropShadow_1_35" result="shape"/>
</filter>
<filter id="filter7_d_1_35" x="36.2932" y="10.486" width="24.8106" height="24.2434" filterUnits="userSpaceOnUse" color-interpolation-filters="sRGB">
<feFlood flood-opacity="0" result="BackgroundImageFix"/>
<feColorMatrix in="SourceAlpha" type="matrix" values="0 0 0 0 0 0 0 0 0 0 0 0 0 0 0 0 0 0 127 0" result="hardAlpha"/>
<feOffset dy="11"/>
<feGaussianBlur stdDeviation="5.4"/>
<feComposite in2="hardAlpha" operator="out"/>
<feColorMatrix type="matrix" values="0 0 0 0 0 0 0 0 0 0 0 0 0 0 0 0 0 0 0.14 0"/>
<feBlend mode="normal" in2="BackgroundImageFix" result="effect1_dropShadow_1_35"/>
<feBlend mode="normal" in="SourceGraphic" in2="effect1_dropShadow_1_35" result="shape"/>
</filter>
<filter id="filter8_d_1_35" x="16.0159" y="2.62766" width="27.4271" height="25.3889" filterUnits="userSpaceOnUse" color-interpolation-filters="sRGB">
<feFlood flood-opacity="0" result="BackgroundImageFix"/>
<feColorMatrix in="SourceAlpha" type="matrix" values="0 0 0 0 0 0 0 0 0 0 0 0 0 0 0 0 0 0 127 0" result="hardAlpha"/>
<feOffset dy="11"/>
<feGaussianBlur stdDeviation="5.4"/>
<feComposite in2="hardAlpha" operator="out"/>
<feColorMatrix type="matrix" values="0 0 0 0 0 0 0 0 0 0 0 0 0 0 0 0 0 0 0.14 0"/>
<feBlend mode="normal" in2="BackgroundImageFix" result="effect1_dropShadow_1_35"/>
<feBlend mode="normal" in="SourceGraphic" in2="effect1_dropShadow_1_35" result="shape"/>
</filter>
<filter id="filter9_d_1_35" x="14.9436" y="15.0734" width="27.3334" height="25.3889" filterUnits="userSpaceOnUse" color-interpolation-filters="sRGB">
<feFlood flood-opacity="0" result="BackgroundImageFix"/>
<feColorMatrix in="SourceAlpha" type="matrix" values="0 0 0 0 0 0 0 0 0 0 0 0 0 0 0 0 0 0 127 0" result="hardAlpha"/>
<feOffset dy="11"/>
<feGaussianBlur stdDeviation="5.4"/>
<feComposite in2="hardAlpha" operator="out"/>
<feColorMatrix type="matrix" values="0 0 0 0 0 0 0 0 0 0 0 0 0 0 0 0 0 0 0.14 0"/>
<feBlend mode="normal" in2="BackgroundImageFix" result="effect1_dropShadow_1_35"/>
<feBlend mode="normal" in="SourceGraphic" in2="effect1_dropShadow_1_35" result="shape"/>
</filter>
<filter id="filter10_d_1_35" x="1.00556" y="11.7639" width="30.1771" height="27.0208" filterUnits="userSpaceOnUse" color-interpolation-filters="sRGB">
<feFlood flood-opacity="0" result="BackgroundImageFix"/>
<feColorMatrix in="SourceAlpha" type="matrix" values="0 0 0 0 0 0 0 0 0 0 0 0 0 0 0 0 0 0 127 0" result="hardAlpha"/>
<feOffset dy="11"/>
<feGaussianBlur stdDeviation="5.4"/>
<feComposite in2="hardAlpha" operator="out"/>
<feColorMatrix type="matrix" values="0 0 0 0 0 0 0 0 0 0 0 0 0 0 0 0 0 0 0.14 0"/>
<feBlend mode="normal" in2="BackgroundImageFix" result="effect1_dropShadow_1_35"/>
<feBlend mode="normal" in="SourceGraphic" in2="effect1_dropShadow_1_35" result="shape"/>
</filter>
<filter id="filter11_d_1_35" x="21.8425" y="14.0012" width="26.448" height="24.8299" filterUnits="userSpaceOnUse" color-interpolation-filters="sRGB">
<feFlood flood-opacity="0" result="BackgroundImageFix"/>
<feColorMatrix in="SourceAlpha" type="matrix" values="0 0 0 0 0 0 0 0 0 0 0 0 0 0 0 0 0 0 127 0" result="hardAlpha"/>
<feOffset dy="11"/>
<feGaussianBlur stdDeviation="5.4"/>
<feComposite in2="hardAlpha" operator="out"/>
<feColorMatrix type="matrix" values="0 0 0 0 0 0 0 0 0 0 0 0 0 0 0 0 0 0 0.14 0"/>
<feBlend mode="normal" in2="BackgroundImageFix" result="effect1_dropShadow_1_35"/>
<feBlend mode="normal" in="SourceGraphic" in2="effect1_dropShadow_1_35" result="shape"/>
</filter>
<filter id="filter12_d_1_35" x="17.8338" y="0" width="26.4479" height="24.1011" filterUnits="userSpaceOnUse" color-interpolation-filters="sRGB">
<feFlood flood-opacity="0" result="BackgroundImageFix"/>
<feColorMatrix in="SourceAlpha" type="matrix" values="0 0 0 0 0 0 0 0 0 0 0 0 0 0 0 0 0 0 127 0" result="hardAlpha"/>
<feOffset dy="11"/>
<feGaussianBlur stdDeviation="5.4"/>
<feComposite in2="hardAlpha" operator="out"/>
<feColorMatrix type="matrix" values="0 0 0 0 0 0 0 0 0 0 0 0 0 0 0 0 0 0 0.14 0"/>
<feBlend mode="normal" in2="BackgroundImageFix" result="effect1_dropShadow_1_35"/>
<feBlend mode="normal" in="SourceGraphic" in2="effect1_dropShadow_1_35" result="shape"/>
</filter>
<filter id="filter13_d_1_35" x="20.2576" y="0.762909" width="26.4479" height="24.83" filterUnits="userSpaceOnUse" color-interpolation-filters="sRGB">
<feFlood flood-opacity="0" result="BackgroundImageFix"/>
<feColorMatrix in="SourceAlpha" type="matrix" values="0 0 0 0 0 0 0 0 0 0 0 0 0 0 0 0 0 0 127 0" result="hardAlpha"/>
<feOffset dy="11"/>
<feGaussianBlur stdDeviation="5.4"/>
<feComposite in2="hardAlpha" operator="out"/>
<feColorMatrix type="matrix" values="0 0 0 0 0 0 0 0 0 0 0 0 0 0 0 0 0 0 0.14 0"/>
<feBlend mode="normal" in2="BackgroundImageFix" result="effect1_dropShadow_1_35"/>
<feBlend mode="normal" in="SourceGraphic" in2="effect1_dropShadow_1_35" result="shape"/>
</filter>
</defs>
</svg>
