<svg width="195" height="59" viewBox="0 0 195 59" fill="none" xmlns="http://www.w3.org/2000/svg">
<path d="M8.288 21.152C8.77867 20.512 9.07733 20.8 9.184 22.016L10.112 29.696C10.3467 31.68 11.0187 32.6613 12.128 32.64C12.64 32.64 12.992 32.8747 13.184 33.344C13.376 33.856 13.3547 34.5067 13.12 35.296C12.8853 36.0853 12.5547 36.48 12.128 36.48C10.8053 36.48 9.86667 36.1387 9.312 35.456C8.77867 34.7947 8.39467 33.632 8.16 31.968C7.34933 33.184 6.784 33.8667 6.464 34.016C6.16533 34.1653 5.62133 34.208 4.832 34.144C3.808 34.08 2.93333 33.8133 2.208 33.344C1.73867 33.0453 1.536 32.5867 1.6 31.968C1.664 31.3493 1.89867 30.6667 2.304 29.92C2.51733 29.536 2.70933 29.2053 2.88 28.928C3.05067 28.6507 3.2 28.4373 3.328 28.288C4.352 27.2 5.64267 26.2187 7.2 25.344C7.02933 23.6587 7.072 22.656 7.328 22.336L8.288 21.152ZM7.488 27.648C5.86667 28.16 4.75733 28.8427 4.16 29.696C4.07467 29.824 4.10667 29.9307 4.256 30.016C5.32267 30.464 6.51733 30.5067 7.84 30.144C7.79733 29.8027 7.744 29.4293 7.68 29.024C7.616 28.5973 7.552 28.1387 7.488 27.648ZM5.408 16.096C5.536 15.9253 5.71733 15.872 5.952 15.936C6.37867 16.0853 6.79467 16.2773 7.2 16.512C7.60533 16.7467 7.97867 17.0133 8.32 17.312C8.49067 17.4827 8.52267 17.6747 8.416 17.888L6.88 20.32C6.70933 20.5547 6.51733 20.576 6.304 20.384C6.21867 20.2987 6.02667 20.1707 5.728 20C5.45067 19.808 5.07733 19.5733 4.608 19.296L3.552 21.024C3.40267 21.2373 3.21067 21.2587 2.976 21.088C2.86933 21.0027 2.61333 20.8427 2.208 20.608C1.824 20.3733 1.30133 20.0533 0.64 19.648C0.405333 19.52 0.373333 19.3387 0.544 19.104L2.08 16.8C2.208 16.6293 2.38933 16.576 2.624 16.64C3.264 16.8533 3.86133 17.1627 4.416 17.568L5.408 16.096ZM17.949 31.36C18.6103 32.1707 19.2717 32.608 19.933 32.672C20.5303 32.736 20.8717 32.9493 20.957 33.312C21.021 33.568 21.021 34.016 20.957 34.656C20.9357 34.976 20.8823 35.2533 20.797 35.488C20.733 35.7013 20.669 35.8827 20.605 36.032C20.477 36.3307 20.253 36.48 19.933 36.48C18.7383 36.48 17.5863 35.7973 16.477 34.432C15.1543 35.7973 13.7037 36.48 12.125 36.48C11.677 36.48 11.389 36.192 11.261 35.616L10.973 34.304C10.909 33.9627 10.9943 33.6107 11.229 33.248C11.4637 32.864 11.7623 32.6613 12.125 32.64C14.6637 32.448 16.221 31.8187 16.797 30.752C16.989 30.432 17.1917 30.272 17.405 30.272C17.725 30.272 17.885 30.4533 17.885 30.816C17.885 30.9867 17.8957 31.1147 17.917 31.2C17.9383 31.2853 17.949 31.3387 17.949 31.36ZM17.277 37.92C17.405 37.7493 17.5863 37.696 17.821 37.76C18.2477 37.9093 18.6637 38.1013 19.069 38.336C19.4743 38.5707 19.8477 38.8373 20.189 39.136C20.3597 39.3067 20.3917 39.4987 20.285 39.712L18.749 42.144C18.5783 42.3787 18.3863 42.4 18.173 42.208C18.0877 42.1227 17.8957 41.984 17.597 41.792C17.3197 41.6213 16.9463 41.3973 16.477 41.12L15.421 42.848C15.2717 43.0613 15.0797 43.0827 14.845 42.912C14.7383 42.8267 14.4823 42.6667 14.077 42.432C13.693 42.1973 13.1703 41.8773 12.509 41.472C12.2743 41.344 12.2423 41.1627 12.413 40.928L13.949 38.624C14.077 38.4533 14.2583 38.4 14.493 38.464C15.133 38.6773 15.7303 38.9867 16.285 39.392L17.277 37.92ZM26.9135 27.584C27.2548 27.456 27.5322 27.5307 27.7455 27.808C28.5135 28.9173 29.4948 29.9627 30.6895 30.944C31.8842 31.904 33.2495 32.4693 34.7855 32.64C35.4682 32.704 35.8308 33.1307 35.8735 33.92C35.8735 34.9867 35.7668 35.6693 35.5535 35.968C35.3188 36.3093 35.0628 36.48 34.7855 36.48C33.4202 36.48 32.0442 36.064 30.6575 35.232C30.5508 35.9787 30.4655 36.3947 30.4015 36.48C30.0815 36.928 29.7082 37.152 29.2815 37.152C26.9135 36.96 24.8975 35.9467 23.2335 34.112C22.1455 35.6267 21.0468 36.416 19.9375 36.48C19.4895 36.48 19.1802 36.192 19.0095 35.616C18.7322 34.5067 18.7642 33.696 19.1055 33.184C19.3615 32.864 19.6388 32.6827 19.9375 32.64C21.7722 32.576 22.8602 32.16 23.2015 31.392C24.2255 29.3867 25.4628 28.1173 26.9135 27.584ZM26.9455 30.368C26.9028 30.304 26.8282 30.2827 26.7215 30.304C26.0815 30.4533 25.6228 30.72 25.3455 31.104C25.2388 31.2533 25.2495 31.3707 25.3775 31.456C25.7615 31.776 26.1775 32.064 26.6255 32.32C27.0948 32.5547 27.5962 32.7573 28.1295 32.928C28.2788 32.9707 28.3642 32.9707 28.3855 32.928C28.4282 32.8853 28.4068 32.8213 28.3215 32.736C28.1082 32.4373 27.8842 32.096 27.6495 31.712C27.4148 31.3067 27.1802 30.8587 26.9455 30.368ZM40.574 31.36C41.2353 32.1707 41.8967 32.608 42.558 32.672C43.1553 32.736 43.4967 32.9493 43.582 33.312C43.646 33.568 43.646 34.016 43.582 34.656C43.5607 34.976 43.5073 35.2533 43.422 35.488C43.358 35.7013 43.294 35.8827 43.23 36.032C43.102 36.3307 42.878 36.48 42.558 36.48C41.3633 36.48 40.2113 35.7973 39.102 34.432C37.7793 35.7973 36.3287 36.48 34.75 36.48C34.302 36.48 34.014 36.192 33.886 35.616L33.598 34.304C33.534 33.9627 33.6193 33.6107 33.854 33.248C34.0887 32.864 34.3873 32.6613 34.75 32.64C37.2887 32.448 38.846 31.8187 39.422 30.752C39.614 30.432 39.8167 30.272 40.03 30.272C40.35 30.272 40.51 30.4533 40.51 30.816C40.51 30.9867 40.5207 31.1147 40.542 31.2C40.5633 31.2853 40.574 31.3387 40.574 31.36ZM39.902 37.92C40.03 37.7493 40.2113 37.696 40.446 37.76C40.8727 37.9093 41.2887 38.1013 41.694 38.336C42.0993 38.5707 42.4727 38.8373 42.814 39.136C42.9847 39.3067 43.0167 39.4987 42.91 39.712L41.374 42.144C41.2033 42.3787 41.0113 42.4 40.798 42.208C40.7127 42.1227 40.5207 41.984 40.222 41.792C39.9447 41.6213 39.5713 41.3973 39.102 41.12L38.046 42.848C37.8967 43.0613 37.7047 43.0827 37.47 42.912C37.3633 42.8267 37.1073 42.6667 36.702 42.432C36.318 42.1973 35.7953 41.8773 35.134 41.472C34.8993 41.344 34.8673 41.1627 35.038 40.928L36.574 38.624C36.702 38.4533 36.8833 38.4 37.118 38.464C37.758 38.6773 38.3553 38.9867 38.91 39.392L39.902 37.92ZM45.5385 32.32C45.0905 35.0933 44.0985 36.48 42.5625 36.48C42.1572 36.48 41.8905 36.256 41.7625 35.808C41.2505 34.0373 41.5172 32.992 42.5625 32.672C43.7998 32.288 44.4185 31.456 44.4185 30.176L43.8745 16.32C43.8532 15.8293 43.9278 15.4987 44.0985 15.328L45.2825 13.984C45.6878 13.5147 45.8905 13.7813 45.8905 14.784L46.2425 22.176C46.4132 26.1013 46.5732 28.5013 46.7225 29.376C47.1065 31.3173 47.8318 32.416 48.8985 32.672C49.4105 32.8 49.6985 33.28 49.7625 34.112C49.8265 34.9227 49.7412 35.5947 49.5065 36.128C49.3785 36.3627 49.1758 36.48 48.8985 36.48C47.4265 36.48 46.3065 35.0933 45.5385 32.32ZM60.587 32.64C61.3977 32.64 61.867 32.9707 61.995 33.632C62.0163 33.7387 62.027 33.856 62.027 33.984C62.0483 34.0907 62.0483 34.1973 62.027 34.304C61.7923 35.7547 61.323 36.48 60.619 36.48C58.443 36.48 56.4483 35.392 54.635 33.216C52.1817 35.392 50.2617 36.48 48.875 36.48C48.107 36.48 47.627 35.9467 47.435 34.88C47.243 33.8133 47.4883 33.12 48.171 32.8C48.427 32.6933 48.6617 32.64 48.875 32.64C50.219 32.6187 51.371 32.32 52.331 31.744C51.9257 31.424 51.0403 31.168 49.675 30.976C49.227 30.912 49.0457 30.6133 49.131 30.08C49.3017 29.2053 49.9097 28.352 50.955 27.52C52.9603 25.984 55.2003 25.92 57.675 27.328C58.9123 28.0533 59.435 28.8427 59.243 29.696C59.051 30.4853 58.315 31.2533 57.035 32C57.3763 32.2133 57.8457 32.3733 58.443 32.48C59.0403 32.5653 59.755 32.6187 60.587 32.64ZM66.4178 31.36C67.0791 32.1707 67.7404 32.608 68.4018 32.672C68.9991 32.736 69.3404 32.9493 69.4258 33.312C69.4898 33.568 69.4898 34.016 69.4258 34.656C69.4044 34.976 69.3511 35.2533 69.2658 35.488C69.2018 35.7013 69.1378 35.8827 69.0738 36.032C68.9458 36.3307 68.7218 36.48 68.4018 36.48C67.2071 36.48 66.0551 35.7973 64.9458 34.432C63.6231 35.7973 62.1724 36.48 60.5938 36.48C60.1457 36.48 59.8577 36.192 59.7297 35.616L59.4417 34.304C59.3777 33.9627 59.4631 33.6107 59.6977 33.248C59.9324 32.864 60.2311 32.6613 60.5938 32.64C63.1324 32.448 64.6898 31.8187 65.2658 30.752C65.4578 30.432 65.6604 30.272 65.8738 30.272C66.1938 30.272 66.3538 30.4533 66.3538 30.816C66.3538 30.9867 66.3644 31.1147 66.3858 31.2C66.4071 31.2853 66.4178 31.3387 66.4178 31.36ZM65.0738 21.728C65.2018 21.5573 65.3831 21.504 65.6178 21.568C66.0444 21.7173 66.4604 21.9093 66.8658 22.144C67.2711 22.3787 67.6444 22.6453 67.9858 22.944C68.1564 23.1147 68.1884 23.3067 68.0818 23.52L66.5458 25.952C66.3751 26.1867 66.1831 26.208 65.9698 26.016C65.8844 25.9307 65.6924 25.8027 65.3938 25.632C65.1164 25.44 64.7431 25.2053 64.2738 24.928L63.2178 26.656C63.0684 26.8693 62.8764 26.8907 62.6418 26.72C62.5351 26.6347 62.2791 26.4747 61.8738 26.24C61.4898 26.0053 60.9671 25.6853 60.3057 25.28C60.0711 25.152 60.0391 24.9707 60.2097 24.736L61.7458 22.432C61.8738 22.2613 62.0551 22.208 62.2898 22.272C62.9298 22.4853 63.5271 22.7947 64.0818 23.2L65.0738 21.728ZM71.1263 17.664C71.9796 23.9573 72.2996 28.2773 72.0863 30.624C71.7449 34.1653 70.5183 36.1173 68.4062 36.48C67.8729 36.5653 67.5742 36.2347 67.5102 35.488C67.4889 35.2533 67.4782 34.9973 67.4782 34.72C67.4569 34.4213 67.4569 34.1013 67.4782 33.76C67.5209 33.0773 67.8302 32.704 68.4062 32.64C69.6009 32.512 70.3583 32.1493 70.6783 31.552C70.6569 31.296 70.4969 30.0053 70.1983 27.68C69.9209 25.3333 69.4836 21.952 68.8863 17.536C68.8223 17.1307 68.7583 16.8 68.6943 16.544C68.6516 16.2667 68.6089 16.0533 68.5663 15.904C68.3529 15.392 68.3636 14.9013 68.5983 14.432L69.3983 12.832C69.6969 12.2133 70.0063 12.352 70.3263 13.248C70.4969 13.6747 70.6889 14.0693 70.9023 14.432C71.1369 14.7947 71.4249 15.1147 71.7663 15.392C72.2143 15.7547 72.2569 16.1707 71.8943 16.64L71.1263 17.664ZM77.168 13.856C77.5947 12.9387 77.872 13.152 78 14.496L78.768 22.304C79.408 29.3013 79.2587 33.7067 78.32 35.52C78.1067 35.904 77.904 36.064 77.712 36C77.4987 35.936 77.4027 35.424 77.424 34.464C77.4453 33.6533 77.36 32.32 77.168 30.464C76.976 28.5867 76.688 26.208 76.304 23.328L75.632 18.016C75.568 17.568 75.632 17.1307 75.824 16.704L77.168 13.856Z" fill="black"/>
<g filter="url(#filter0_d_1_39)">
<path d="M117.853 16.9877L120.382 18.5881L98.7522 31.0293L96.0678 29.3257L117.853 16.9877Z" fill="black"/>
</g>
<g filter="url(#filter1_d_1_39)">
<path d="M127.661 23.1825L130.552 24.5247L111.314 35.6341C109.622 36.6113 107.526 36.5676 105.876 35.5204L127.661 23.1825Z" fill="black"/>
</g>
<g filter="url(#filter2_d_1_39)">
<path d="M110.677 28.1903L113.31 29.9455L105.205 34.7981L102.366 33.1528L110.677 28.1903Z" fill="black"/>
</g>
<g filter="url(#filter3_d_1_39)">
<path d="M107.064 11.258L109.696 13.0132L88.8923 24.8349C87.6912 24.1188 87.7055 22.3746 88.918 21.6782L107.064 11.258Z" fill="black"/>
</g>
<g filter="url(#filter4_d_1_39)">
<path d="M108.509 17.9173L111.038 19.7241L95.2934 28.8098L92.5573 27.0613L108.509 17.9173Z" fill="black"/>
</g>
<g filter="url(#filter5_d_1_39)">
<path d="M101.488 29.4291L107.528 33.4042L104.947 34.9528L98.752 31.0295L101.488 29.4291Z" fill="black"/>
</g>
<g filter="url(#filter6_d_1_39)">
<path d="M120.589 15.3877L127.713 19.8272L124.512 21.5308L117.853 16.988L120.589 15.3877Z" fill="black"/>
</g>
<g filter="url(#filter7_d_1_39)">
<path d="M130.191 21.6127L130.913 22.0661C131.753 22.5943 131.725 23.8286 130.862 24.3186L127.971 22.9248L130.191 21.6127Z" fill="black"/>
</g>
<g filter="url(#filter8_d_1_39)">
<path d="M111.968 14.4068L107.838 16.8844L105.515 15.3358L109.541 12.91L111.968 14.4068ZM107.321 14.3916L108.738 15.3217L110.316 14.3916L108.861 13.4821L107.321 14.3916Z" fill="black"/>
</g>
<g filter="url(#filter9_d_1_39)">
<path d="M110.677 28.1898L106.651 30.6675L104.328 29.1188L108.251 26.693L110.677 28.1898ZM106.599 28.7424L108.045 29.7277L109.571 28.7424L108.087 27.7767L106.599 28.7424Z" fill="black"/>
</g>
<g filter="url(#filter10_d_1_39)">
<path d="M91.8347 23.0279L98.3908 26.9512L95.3451 28.8096L88.8921 24.8347L91.8347 23.0279Z" fill="black"/>
</g>
<g filter="url(#filter11_d_1_39)">
<path d="M114.91 25.5056L117.337 27.0026L114.291 28.861L111.968 27.3123L114.91 25.5056Z" fill="black"/>
</g>
<g filter="url(#filter12_d_1_39)">
<path d="M108.041 10.6847C109.531 9.76987 111.409 9.77191 112.897 10.69L109.851 12.5484L107.528 10.9997L108.041 10.6847Z" fill="black"/>
</g>
<g filter="url(#filter13_d_1_39)">
<path d="M113.155 10.8449L115.581 12.342L112.536 14.2004L110.213 12.6517L113.155 10.8449Z" fill="black"/>
</g>
<path d="M94.233 32.5835C94.2684 31.732 95.2123 31.238 95.9322 31.6943L107.83 39.2336C108.183 39.4576 108.632 39.4632 108.991 39.2484L121.649 31.6715C122.387 31.2296 123.325 31.7614 123.325 32.6216V36.2496C123.325 36.6311 123.129 36.9857 122.805 37.1882L109.005 45.8311C108.64 46.06 108.175 46.0559 107.813 45.8207L94.5832 37.2069C94.2555 36.9935 94.0647 36.6233 94.0809 36.2327L94.233 32.5835Z" fill="#FFCC00"/>
<path d="M128.797 27.8289L129.674 27.2095V33.301H128.797V27.8289Z" fill="#FFCC00"/>
<path d="M127.925 33.4024C128.544 33.329 128.723 33.2485 128.797 32.6299H129.674C129.748 33.2485 129.876 33.329 130.495 33.4024L130.974 33.4592C131.031 33.466 131.031 33.5488 130.974 33.5557L130.495 33.6125C129.876 33.6859 129.388 34.1736 129.315 34.7922L129.258 35.2714C129.251 35.3285 129.168 35.3285 129.162 35.2714L129.105 34.7922C129.031 34.1736 128.544 33.6859 127.925 33.6125L127.446 33.5557C127.389 33.5488 127.389 33.466 127.446 33.4592L127.925 33.4024Z" fill="#FFCC00"/>
<path d="M146.815 21.152C147.305 20.512 147.604 20.8 147.711 22.016L148.639 29.696C148.873 31.68 149.545 32.6613 150.655 32.64C151.167 32.64 151.519 32.8747 151.711 33.344C151.903 33.856 151.881 34.5067 151.647 35.296C151.412 36.0853 151.081 36.48 150.655 36.48C149.332 36.48 148.393 36.1387 147.839 35.456C147.305 34.7947 146.921 33.632 146.687 31.968C145.876 33.184 145.311 33.8667 144.991 34.016C144.692 34.1653 144.148 34.208 143.359 34.144C142.335 34.08 141.46 33.8133 140.735 33.344C140.265 33.0453 140.063 32.5867 140.127 31.968C140.191 31.3493 140.425 30.6667 140.831 29.92C141.044 29.536 141.236 29.2053 141.407 28.928C141.577 28.6507 141.727 28.4373 141.855 28.288C142.879 27.2 144.169 26.2187 145.727 25.344C145.556 23.6587 145.599 22.656 145.855 22.336L146.815 21.152ZM146.015 27.648C144.393 28.16 143.284 28.8427 142.687 29.696C142.601 29.824 142.633 29.9307 142.783 30.016C143.849 30.464 145.044 30.5067 146.367 30.144C146.324 29.8027 146.271 29.4293 146.207 29.024C146.143 28.5973 146.079 28.1387 146.015 27.648ZM143.935 16.096C144.063 15.9253 144.244 15.872 144.479 15.936C144.905 16.0853 145.321 16.2773 145.727 16.512C146.132 16.7467 146.505 17.0133 146.847 17.312C147.017 17.4827 147.049 17.6747 146.943 17.888L145.407 20.32C145.236 20.5547 145.044 20.576 144.831 20.384C144.745 20.2987 144.553 20.1707 144.255 20C143.977 19.808 143.604 19.5733 143.135 19.296L142.079 21.024C141.929 21.2373 141.737 21.2587 141.503 21.088C141.396 21.0027 141.14 20.8427 140.735 20.608C140.351 20.3733 139.828 20.0533 139.167 19.648C138.932 19.52 138.9 19.3387 139.071 19.104L140.607 16.8C140.735 16.6293 140.916 16.576 141.151 16.64C141.791 16.8533 142.388 17.1627 142.943 17.568L143.935 16.096ZM158.076 36.192C157.862 36.768 157.702 37.312 157.596 37.824C157.468 38.4213 157.19 38.688 156.764 38.624C156.252 38.5387 156.145 37.9733 156.444 36.928C156.55 36.5227 156.636 36.224 156.7 36.032C156.764 35.84 156.796 35.7333 156.796 35.712C156.241 35.5413 155.718 35.2853 155.228 34.944C154.758 34.6027 154.321 34.1867 153.916 33.696C152.742 35.552 151.665 36.48 150.684 36.48C150.193 36.48 149.852 36.192 149.66 35.616C149.276 34.3787 149.425 33.44 150.108 32.8C150.214 32.6933 150.396 32.64 150.652 32.64C151.889 32.64 153.062 31.9893 154.172 30.688C154.342 30.4747 154.524 30.3893 154.716 30.432C154.929 30.4747 155.164 30.6347 155.42 30.912C156.209 31.8293 157.34 32.3627 158.812 32.512C159.43 31.616 160.102 30.752 160.828 29.92C161.574 29.088 162.374 28.3093 163.228 27.584C164.934 26.0907 166.428 25.2053 167.708 24.928C168.689 24.736 169.638 24.96 170.556 25.6C171.473 26.24 172.049 27.0507 172.284 28.032C171.964 29.568 171.462 30.8907 170.78 32C171.228 32.1493 171.708 32.2773 172.22 32.384C172.732 32.4907 173.254 32.576 173.788 32.64C174.236 32.6613 174.513 33.152 174.62 34.112C174.705 35.0933 174.641 35.744 174.428 36.064C174.257 36.32 174.054 36.4587 173.82 36.48C172.134 36.672 170.012 36.128 167.452 34.848C164.828 36.4053 161.702 36.8533 158.076 36.192ZM169.724 29.856C168.081 28.7253 166.278 28.736 164.316 29.888C162.374 31.04 161.084 31.9787 160.444 32.704C161.83 32.64 163.452 32.352 165.308 31.84C167.142 31.328 168.614 30.6667 169.724 29.856ZM179.569 31.36C180.231 32.1707 180.892 32.608 181.553 32.672C182.151 32.736 182.492 32.9493 182.577 33.312C182.641 33.568 182.641 34.016 182.577 34.656C182.556 34.976 182.503 35.2533 182.417 35.488C182.353 35.7013 182.289 35.8827 182.225 36.032C182.097 36.3307 181.873 36.48 181.553 36.48C180.359 36.48 179.207 35.7973 178.097 34.432C176.775 35.7973 175.324 36.48 173.745 36.48C173.297 36.48 173.009 36.192 172.881 35.616L172.593 34.304C172.529 33.9627 172.615 33.6107 172.849 33.248C173.084 32.864 173.383 32.6613 173.745 32.64C176.284 32.448 177.841 31.8187 178.417 30.752C178.609 30.432 178.812 30.272 179.025 30.272C179.345 30.272 179.505 30.4533 179.505 30.816C179.505 30.9867 179.516 31.1147 179.537 31.2C179.559 31.2853 179.569 31.3387 179.569 31.36ZM176.945 20.416C177.073 20.2453 177.255 20.192 177.489 20.256C177.916 20.4053 178.321 20.5973 178.705 20.832C179.111 21.0667 179.484 21.3333 179.825 21.632C179.996 21.8027 180.028 21.9947 179.921 22.208L178.385 24.64C178.236 24.8533 178.044 24.8747 177.809 24.704C177.596 24.5333 176.828 24.0533 175.505 23.264C175.271 23.1147 175.228 22.9333 175.377 22.72L176.945 20.416ZM189.014 25.344C190.593 25.3867 191.681 27.3493 192.278 31.232C192.342 31.5947 192.278 31.8933 192.086 32.128L190.518 34.176C190.241 34.5173 189.867 34.6453 189.398 34.56C187.67 34.1333 186.251 33.3653 185.142 32.256C184.246 35.0507 183.051 36.4587 181.558 36.48C181.131 36.48 180.822 36.1707 180.63 35.552C180.438 34.9333 180.342 34.368 180.342 33.856C180.342 33.344 180.566 32.9813 181.014 32.768C181.099 32.7253 181.195 32.6933 181.302 32.672C181.387 32.6507 181.473 32.64 181.558 32.64C182.71 32.576 183.67 31.9787 184.438 30.848C184.545 30.6773 184.758 30.3253 185.078 29.792C185.419 29.2373 185.846 28.5013 186.358 27.584C187.19 26.0907 188.075 25.344 189.014 25.344ZM186.71 28.96C187.457 29.6853 188.417 30.176 189.59 30.432C189.611 29.5147 189.302 28.9067 188.662 28.608C188.022 28.3093 187.371 28.4267 186.71 28.96Z" fill="black"/>
<defs>
<filter id="filter0_d_1_39" x="85.2678" y="16.9877" width="45.9145" height="35.8415" filterUnits="userSpaceOnUse" color-interpolation-filters="sRGB">
<feFlood flood-opacity="0" result="BackgroundImageFix"/>
<feColorMatrix in="SourceAlpha" type="matrix" values="0 0 0 0 0 0 0 0 0 0 0 0 0 0 0 0 0 0 127 0" result="hardAlpha"/>
<feOffset dy="11"/>
<feGaussianBlur stdDeviation="5.4"/>
<feComposite in2="hardAlpha" operator="out"/>
<feColorMatrix type="matrix" values="0 0 0 0 0 0 0 0 0 0 0 0 0 0 0 0 0 0 0.14 0"/>
<feBlend mode="normal" in2="BackgroundImageFix" result="effect1_dropShadow_1_39"/>
<feBlend mode="normal" in="SourceGraphic" in2="effect1_dropShadow_1_39" result="shape"/>
</filter>
<filter id="filter1_d_1_39" x="95.0764" y="23.1825" width="46.2757" height="34.9551" filterUnits="userSpaceOnUse" color-interpolation-filters="sRGB">
<feFlood flood-opacity="0" result="BackgroundImageFix"/>
<feColorMatrix in="SourceAlpha" type="matrix" values="0 0 0 0 0 0 0 0 0 0 0 0 0 0 0 0 0 0 127 0" result="hardAlpha"/>
<feOffset dy="11"/>
<feGaussianBlur stdDeviation="5.4"/>
<feComposite in2="hardAlpha" operator="out"/>
<feColorMatrix type="matrix" values="0 0 0 0 0 0 0 0 0 0 0 0 0 0 0 0 0 0 0.14 0"/>
<feBlend mode="normal" in2="BackgroundImageFix" result="effect1_dropShadow_1_39"/>
<feBlend mode="normal" in="SourceGraphic" in2="effect1_dropShadow_1_39" result="shape"/>
</filter>
<filter id="filter2_d_1_39" x="91.5658" y="28.1903" width="32.5441" height="28.4078" filterUnits="userSpaceOnUse" color-interpolation-filters="sRGB">
<feFlood flood-opacity="0" result="BackgroundImageFix"/>
<feColorMatrix in="SourceAlpha" type="matrix" values="0 0 0 0 0 0 0 0 0 0 0 0 0 0 0 0 0 0 127 0" result="hardAlpha"/>
<feOffset dy="11"/>
<feGaussianBlur stdDeviation="5.4"/>
<feComposite in2="hardAlpha" operator="out"/>
<feColorMatrix type="matrix" values="0 0 0 0 0 0 0 0 0 0 0 0 0 0 0 0 0 0 0.14 0"/>
<feBlend mode="normal" in2="BackgroundImageFix" result="effect1_dropShadow_1_39"/>
<feBlend mode="normal" in="SourceGraphic" in2="effect1_dropShadow_1_39" result="shape"/>
</filter>
<filter id="filter3_d_1_39" x="77.2" y="11.258" width="43.2963" height="35.3769" filterUnits="userSpaceOnUse" color-interpolation-filters="sRGB">
<feFlood flood-opacity="0" result="BackgroundImageFix"/>
<feColorMatrix in="SourceAlpha" type="matrix" values="0 0 0 0 0 0 0 0 0 0 0 0 0 0 0 0 0 0 127 0" result="hardAlpha"/>
<feOffset dy="11"/>
<feGaussianBlur stdDeviation="5.4"/>
<feComposite in2="hardAlpha" operator="out"/>
<feColorMatrix type="matrix" values="0 0 0 0 0 0 0 0 0 0 0 0 0 0 0 0 0 0 0.14 0"/>
<feBlend mode="normal" in2="BackgroundImageFix" result="effect1_dropShadow_1_39"/>
<feBlend mode="normal" in="SourceGraphic" in2="effect1_dropShadow_1_39" result="shape"/>
</filter>
<filter id="filter4_d_1_39" x="81.7573" y="17.9173" width="40.081" height="32.6926" filterUnits="userSpaceOnUse" color-interpolation-filters="sRGB">
<feFlood flood-opacity="0" result="BackgroundImageFix"/>
<feColorMatrix in="SourceAlpha" type="matrix" values="0 0 0 0 0 0 0 0 0 0 0 0 0 0 0 0 0 0 127 0" result="hardAlpha"/>
<feOffset dy="11"/>
<feGaussianBlur stdDeviation="5.4"/>
<feComposite in2="hardAlpha" operator="out"/>
<feColorMatrix type="matrix" values="0 0 0 0 0 0 0 0 0 0 0 0 0 0 0 0 0 0 0.14 0"/>
<feBlend mode="normal" in2="BackgroundImageFix" result="effect1_dropShadow_1_39"/>
<feBlend mode="normal" in="SourceGraphic" in2="effect1_dropShadow_1_39" result="shape"/>
</filter>
<filter id="filter5_d_1_39" x="87.952" y="29.4291" width="30.3759" height="27.3237" filterUnits="userSpaceOnUse" color-interpolation-filters="sRGB">
<feFlood flood-opacity="0" result="BackgroundImageFix"/>
<feColorMatrix in="SourceAlpha" type="matrix" values="0 0 0 0 0 0 0 0 0 0 0 0 0 0 0 0 0 0 127 0" result="hardAlpha"/>
<feOffset dy="11"/>
<feGaussianBlur stdDeviation="5.4"/>
<feComposite in2="hardAlpha" operator="out"/>
<feColorMatrix type="matrix" values="0 0 0 0 0 0 0 0 0 0 0 0 0 0 0 0 0 0 0.14 0"/>
<feBlend mode="normal" in2="BackgroundImageFix" result="effect1_dropShadow_1_39"/>
<feBlend mode="normal" in="SourceGraphic" in2="effect1_dropShadow_1_39" result="shape"/>
</filter>
<filter id="filter6_d_1_39" x="107.053" y="15.3877" width="31.46" height="27.9432" filterUnits="userSpaceOnUse" color-interpolation-filters="sRGB">
<feFlood flood-opacity="0" result="BackgroundImageFix"/>
<feColorMatrix in="SourceAlpha" type="matrix" values="0 0 0 0 0 0 0 0 0 0 0 0 0 0 0 0 0 0 127 0" result="hardAlpha"/>
<feOffset dy="11"/>
<feGaussianBlur stdDeviation="5.4"/>
<feComposite in2="hardAlpha" operator="out"/>
<feColorMatrix type="matrix" values="0 0 0 0 0 0 0 0 0 0 0 0 0 0 0 0 0 0 0.14 0"/>
<feBlend mode="normal" in2="BackgroundImageFix" result="effect1_dropShadow_1_39"/>
<feBlend mode="normal" in="SourceGraphic" in2="effect1_dropShadow_1_39" result="shape"/>
</filter>
<filter id="filter7_d_1_39" x="117.171" y="21.6127" width="25.1555" height="24.5059" filterUnits="userSpaceOnUse" color-interpolation-filters="sRGB">
<feFlood flood-opacity="0" result="BackgroundImageFix"/>
<feColorMatrix in="SourceAlpha" type="matrix" values="0 0 0 0 0 0 0 0 0 0 0 0 0 0 0 0 0 0 127 0" result="hardAlpha"/>
<feOffset dy="11"/>
<feGaussianBlur stdDeviation="5.4"/>
<feComposite in2="hardAlpha" operator="out"/>
<feColorMatrix type="matrix" values="0 0 0 0 0 0 0 0 0 0 0 0 0 0 0 0 0 0 0.14 0"/>
<feBlend mode="normal" in2="BackgroundImageFix" result="effect1_dropShadow_1_39"/>
<feBlend mode="normal" in="SourceGraphic" in2="effect1_dropShadow_1_39" result="shape"/>
</filter>
<filter id="filter8_d_1_39" x="94.7152" y="12.91" width="28.0532" height="25.7745" filterUnits="userSpaceOnUse" color-interpolation-filters="sRGB">
<feFlood flood-opacity="0" result="BackgroundImageFix"/>
<feColorMatrix in="SourceAlpha" type="matrix" values="0 0 0 0 0 0 0 0 0 0 0 0 0 0 0 0 0 0 127 0" result="hardAlpha"/>
<feOffset dy="11"/>
<feGaussianBlur stdDeviation="5.4"/>
<feComposite in2="hardAlpha" operator="out"/>
<feColorMatrix type="matrix" values="0 0 0 0 0 0 0 0 0 0 0 0 0 0 0 0 0 0 0.14 0"/>
<feBlend mode="normal" in2="BackgroundImageFix" result="effect1_dropShadow_1_39"/>
<feBlend mode="normal" in="SourceGraphic" in2="effect1_dropShadow_1_39" result="shape"/>
</filter>
<filter id="filter9_d_1_39" x="93.5277" y="26.693" width="27.9494" height="25.7745" filterUnits="userSpaceOnUse" color-interpolation-filters="sRGB">
<feFlood flood-opacity="0" result="BackgroundImageFix"/>
<feColorMatrix in="SourceAlpha" type="matrix" values="0 0 0 0 0 0 0 0 0 0 0 0 0 0 0 0 0 0 127 0" result="hardAlpha"/>
<feOffset dy="11"/>
<feGaussianBlur stdDeviation="5.4"/>
<feComposite in2="hardAlpha" operator="out"/>
<feColorMatrix type="matrix" values="0 0 0 0 0 0 0 0 0 0 0 0 0 0 0 0 0 0 0.14 0"/>
<feBlend mode="normal" in2="BackgroundImageFix" result="effect1_dropShadow_1_39"/>
<feBlend mode="normal" in="SourceGraphic" in2="effect1_dropShadow_1_39" result="shape"/>
</filter>
<filter id="filter10_d_1_39" x="78.0921" y="23.0279" width="31.0986" height="27.5817" filterUnits="userSpaceOnUse" color-interpolation-filters="sRGB">
<feFlood flood-opacity="0" result="BackgroundImageFix"/>
<feColorMatrix in="SourceAlpha" type="matrix" values="0 0 0 0 0 0 0 0 0 0 0 0 0 0 0 0 0 0 127 0" result="hardAlpha"/>
<feOffset dy="11"/>
<feGaussianBlur stdDeviation="5.4"/>
<feComposite in2="hardAlpha" operator="out"/>
<feColorMatrix type="matrix" values="0 0 0 0 0 0 0 0 0 0 0 0 0 0 0 0 0 0 0.14 0"/>
<feBlend mode="normal" in2="BackgroundImageFix" result="effect1_dropShadow_1_39"/>
<feBlend mode="normal" in="SourceGraphic" in2="effect1_dropShadow_1_39" result="shape"/>
</filter>
<filter id="filter11_d_1_39" x="101.168" y="25.5056" width="26.9689" height="25.1554" filterUnits="userSpaceOnUse" color-interpolation-filters="sRGB">
<feFlood flood-opacity="0" result="BackgroundImageFix"/>
<feColorMatrix in="SourceAlpha" type="matrix" values="0 0 0 0 0 0 0 0 0 0 0 0 0 0 0 0 0 0 127 0" result="hardAlpha"/>
<feOffset dy="11"/>
<feGaussianBlur stdDeviation="5.4"/>
<feComposite in2="hardAlpha" operator="out"/>
<feColorMatrix type="matrix" values="0 0 0 0 0 0 0 0 0 0 0 0 0 0 0 0 0 0 0.14 0"/>
<feBlend mode="normal" in2="BackgroundImageFix" result="effect1_dropShadow_1_39"/>
<feBlend mode="normal" in="SourceGraphic" in2="effect1_dropShadow_1_39" result="shape"/>
</filter>
<filter id="filter12_d_1_39" x="96.7284" y="10" width="26.9688" height="24.3484" filterUnits="userSpaceOnUse" color-interpolation-filters="sRGB">
<feFlood flood-opacity="0" result="BackgroundImageFix"/>
<feColorMatrix in="SourceAlpha" type="matrix" values="0 0 0 0 0 0 0 0 0 0 0 0 0 0 0 0 0 0 127 0" result="hardAlpha"/>
<feOffset dy="11"/>
<feGaussianBlur stdDeviation="5.4"/>
<feComposite in2="hardAlpha" operator="out"/>
<feColorMatrix type="matrix" values="0 0 0 0 0 0 0 0 0 0 0 0 0 0 0 0 0 0 0.14 0"/>
<feBlend mode="normal" in2="BackgroundImageFix" result="effect1_dropShadow_1_39"/>
<feBlend mode="normal" in="SourceGraphic" in2="effect1_dropShadow_1_39" result="shape"/>
</filter>
<filter id="filter13_d_1_39" x="99.4126" y="10.8449" width="26.9688" height="25.1555" filterUnits="userSpaceOnUse" color-interpolation-filters="sRGB">
<feFlood flood-opacity="0" result="BackgroundImageFix"/>
<feColorMatrix in="SourceAlpha" type="matrix" values="0 0 0 0 0 0 0 0 0 0 0 0 0 0 0 0 0 0 127 0" result="hardAlpha"/>
<feOffset dy="11"/>
<feGaussianBlur stdDeviation="5.4"/>
<feComposite in2="hardAlpha" operator="out"/>
<feColorMatrix type="matrix" values="0 0 0 0 0 0 0 0 0 0 0 0 0 0 0 0 0 0 0.14 0"/>
<feBlend mode="normal" in2="BackgroundImageFix" result="effect1_dropShadow_1_39"/>
<feBlend mode="normal" in="SourceGraphic" in2="effect1_dropShadow_1_39" result="shape"/>
</filter>
</defs>
</svg>
