<svg width="57" height="38" viewBox="0 0 57 38" fill="none" xmlns="http://www.w3.org/2000/svg">
<path d="M34.0469 15.9713H52.9062C53.4947 15.9713 54.059 16.1818 54.4751 16.5565C54.8912 16.9312 55.125 17.4394 55.125 17.9693V33.9532C55.125 34.4831 54.8912 34.9913 54.4751 35.366C54.059 35.7407 53.4947 35.9512 52.9062 35.9512H36.2656C35.6772 35.9512 35.1128 35.7407 34.6967 35.366C34.2806 34.9913 34.0469 34.4831 34.0469 33.9532V11.9754C34.0469 9.32586 35.2157 6.78489 37.2962 4.91141C39.3766 3.03794 42.1984 1.98543 45.1406 1.98543" stroke="black" stroke-opacity="0.55" stroke-width="3" stroke-linecap="round" stroke-linejoin="round"/>
<path d="M1.875 15.9713H20.7344C21.3228 15.9713 21.8872 16.1818 22.3033 16.5565C22.7194 16.9312 22.9531 17.4394 22.9531 17.9693V33.9532C22.9531 34.4831 22.7194 34.9913 22.3033 35.366C21.8872 35.7407 21.3228 35.9512 20.7344 35.9512H4.09375C3.5053 35.9512 2.94095 35.7407 2.52486 35.366C2.10876 34.9913 1.875 34.4831 1.875 33.9532V11.9754C1.875 9.32586 3.0438 6.78489 5.12428 4.91141C7.20477 3.03794 10.0265 1.98543 12.9688 1.98543" stroke="black" stroke-opacity="0.55" stroke-width="3" stroke-linecap="round" stroke-linejoin="round"/>
</svg>
